<svg width="320" height="320" viewBox="0 0 320 320" fill="none" xmlns="http://www.w3.org/2000/svg">
<g clip-path="url(#clip0_11_6)">
<rect width="320" height="320" rx="160" fill="#FFE600" fill-opacity="0.55"/>
<ellipse cx="159.5" cy="246" rx="144.5" ry="160" fill="#FF9A8C" fill-opacity="0.49"/>
<ellipse cx="160" cy="189.5" rx="160" ry="148.5" fill="#FFA337" fill-opacity="0.41"/>
<path d="M185.633 150.142C185.633 164.157 173.933 175.519 159.5 175.519C145.067 175.519 133.367 164.157 133.367 150.142C133.367 136.126 145.067 124.764 159.5 124.764C173.933 124.764 185.633 136.126 185.633 150.142ZM142.58 150.142C142.58 159.216 150.156 166.573 159.5 166.573C168.845 166.573 176.42 159.216 176.42 150.142C176.42 141.067 168.845 133.711 159.5 133.711C150.156 133.711 142.58 141.067 142.58 150.142Z" fill="url(#paint0_linear_11_6)" style="mix-blend-mode:multiply"/>
<path d="M195.796 103.98C198.304 100.79 203.145 100.795 205.283 104.245C210.957 113.4 214.875 124.163 216.676 135.677C218.925 150.06 217.77 164.967 213.358 178.515C208.946 192.062 201.474 203.642 191.887 211.788C182.301 219.935 171.03 224.284 159.5 224.284C147.97 224.284 136.699 219.935 127.112 211.788C117.526 203.642 110.054 192.062 105.641 178.515C101.229 164.967 100.075 150.06 102.324 135.677C104.125 124.163 108.043 113.4 113.717 104.245C115.855 100.795 120.695 100.789 123.204 103.98C124.991 106.253 124.961 109.435 123.376 111.854C118.363 119.504 114.916 128.65 113.38 138.474C111.565 150.075 112.497 162.1 116.056 173.028C119.615 183.956 125.642 193.297 133.375 199.868C141.108 206.44 150.199 209.947 159.5 209.947C168.8 209.947 177.892 206.44 185.625 199.868C193.358 193.297 199.385 183.956 202.944 173.028C206.503 162.1 207.434 150.075 205.62 138.474C204.083 128.651 200.636 119.504 195.623 111.854C194.039 109.435 194.009 106.253 195.796 103.98Z" fill="url(#paint1_linear_11_6)" style="mix-blend-mode:multiply"/>
<path d="M138.725 238.146L114.388 226.847C104.159 222.097 92.2972 222.407 82.3297 227.683L78.9132 229.492C74.8818 231.626 71.5527 234.928 69.3701 238.933V238.933C64.4388 247.983 66.0677 259.276 73.4168 266.501V266.501C74.2626 267.332 75.1712 268.097 76.1345 268.789L76.8626 269.312C82.7589 273.546 89.8351 275.823 97.0942 275.823H102.092C109.789 275.823 117.383 274.046 124.281 270.63L144.591 260.573L174.898 245.323L204.943 232.195C212.12 229.059 220.077 228.163 227.773 229.624L233.282 230.67C240.32 232.006 246.493 236.193 250.336 242.238L251.339 243.816C255.486 250.339 256.002 258.532 252.707 265.525V265.525C251.05 269.041 248.511 272.07 245.338 274.316L244.155 275.154C237.153 280.109 228.269 281.59 220.039 279.174L212.971 277.099C210.083 276.251 207.292 275.104 204.642 273.677L186.141 263.713" stroke="url(#paint2_linear_11_6)" stroke-width="15" stroke-linecap="round" style="mix-blend-mode:multiply"/>
</g>
<defs>
<linearGradient id="paint0_linear_11_6" x1="159.5" y1="124.764" x2="159.5" y2="175.519" gradientUnits="userSpaceOnUse">
<stop stop-color="#C566FF"/>
<stop offset="0.0001" stop-color="#F85CF3" stop-opacity="0.9"/>
<stop offset="1" stop-color="#B706F5" stop-opacity="0.8"/>
</linearGradient>
<linearGradient id="paint1_linear_11_6" x1="159.5" y1="76" x2="159.5" y2="224.284" gradientUnits="userSpaceOnUse">
<stop stop-color="#C566FF"/>
<stop offset="0.0001" stop-color="#F85CF3" stop-opacity="0.9"/>
<stop offset="1" stop-color="#B706F5" stop-opacity="0.8"/>
</linearGradient>
<linearGradient id="paint2_linear_11_6" x1="159.5" y1="209.853" x2="159.5" y2="283" gradientUnits="userSpaceOnUse">
<stop stop-color="#C566FF"/>
<stop offset="0.0001" stop-color="#F85CF3" stop-opacity="0.9"/>
<stop offset="1" stop-color="#B706F5" stop-opacity="0.8"/>
</linearGradient>
<clipPath id="clip0_11_6">
<rect width="320" height="320" rx="160" fill="white"/>
</clipPath>
</defs>
</svg>
